<svg width="21" height="29" viewBox="0 0 21 29" fill="none" xmlns="http://www.w3.org/2000/svg">
<path d="M19.6919 0.95752C19.1935 0.95752 18.7895 1.36369 18.7895 1.8555V18.3244L11.4167 4.45939C11.3706 4.37596 11.2784 4.35631 11.2125 4.29483C11.1445 4.22457 11.1203 4.12135 11.0259 4.07305C10.9996 4.05988 10.9688 4.07956 10.9403 4.07077C10.8305 4.02467 10.7229 4.04446 10.6 4.04665C10.488 4.04885 10.3892 4.03351 10.286 4.07962C10.2575 4.0906 10.2289 4.07087 10.2004 4.08404C10.1082 4.13454 10.084 4.23551 10.0182 4.30797C9.95669 4.37164 9.86227 4.39579 9.82055 4.47923L0.759425 22.6124C0.537672 23.0559 0.717705 23.5961 1.16341 23.8201C1.29295 23.8794 1.43128 23.9144 1.56521 23.9144C1.89455 23.9144 2.2107 23.7321 2.36878 23.4138L6.65014 14.849H14.9077L18.7939 22.1536V27.142C18.7939 27.6382 19.1978 28.0421 19.6962 28.0421C20.1924 28.0421 20.5942 27.636 20.5942 27.142V1.8555C20.5898 1.3615 20.188 0.95752 19.6919 0.95752ZM7.54595 13.0463L10.6483 6.84164L13.946 13.0463H7.54595Z" fill="#111317"/>
</svg>
